<?xml version="1.0" encoding="utf-8"?>
<!-- Generator: Adobe Illustrator 26.0.1, SVG Export Plug-In . SVG Version: 6.00 Build 0)  -->
<svg version="1.1" id="Layer_1" xmlns="http://www.w3.org/2000/svg" xmlns:xlink="http://www.w3.org/1999/xlink" x="0px" y="0px"
	 viewBox="0 0 1000 1000" style="enable-background:new 0 0 1000 1000;" xml:space="preserve">
<path d="M500.5,5C223.6,5,5,229.5,5,499.5C5,773.5,226.5,995,499.5,995C776.4,995,995,770.5,995,499.5C995,223.6,770.5,5,500.5,5z
	 M481,891.5l-335.8-203V307l54,32.2v319.1l232,142.2v-267L353.9,489v-61.1L481,501V891.5z M500,474.6c-111.3-64.3-222-128.7-333-193
	C278.9,219.2,385.8,160,499,103c96.5,44.4,185.3,98.1,278.3,148.9c19,10,37.3,19.7,56,29.3l-53.7,32.1l-55.3-30.6L501.3,162.2
	l-225.2,121l225.2,128.7l16.7-10l17.4-9.3l38.3-21.9l56.4,28.6l-24.4,14.2l-88.9,51.5L500,474.6z M520.6,897v-64.4
	c90.1-58.9,185.3-113.6,279.2-172.7V402.5c-77.5,48.9-158,87.8-231.6,137v86.8l-47.6,23.5V501.3l334.2-192.7v381.5
	C751.2,762.5,618.1,816.8,520.6,897z"/>
</svg>
